<svg xmlns="http://www.w3.org/2000/svg" xmlns:xlink="http://www.w3.org/1999/xlink" viewBox="0,0,256,256" width="64px" height="64px"><g fill="#45923a" fill-rule="nonzero" stroke="none" stroke-width="1" stroke-linecap="butt" stroke-linejoin="miter" stroke-miterlimit="10" stroke-dasharray="" stroke-dashoffset="0" font-family="none" font-weight="none" font-size="none" text-anchor="none" style="mix-blend-mode: normal"><g transform="scale(4,4)"><path d="M32,3c-16,0 -29,13 -29,29c0,16 13,29 29,29c16,0 29,-13 29,-29c0,-16 -13,-29 -29,-29zM32,6c14.4,0 26,11.6 26,26c0,14.4 -11.7,26 -26,26c-14.4,0 -26,-11.7 -26,-26c0,-14.3 11.6,-26 26,-26zM42.4375,24.48438c-0.38943,0.02029 -0.75573,0.19118 -1.02148,0.47656l-10.40234,10.85352l-5.51172,-5.9375c-0.36526,-0.39367 -0.91282,-0.56254 -1.43636,-0.44298c-0.52354,0.11956 -0.94351,0.50937 -1.10168,1.02257c-0.15817,0.5132 -0.03049,1.0718 0.33492,1.46533l6.5,7c0.01276,0.01392 0.02579,0.02759 0.03906,0.04102l0.09961,0.09961c0.28576,0.28535 0.67435,0.44366 1.07817,0.43925c0.40381,-0.00441 0.78885,-0.17117 1.06832,-0.46269l11.5,-12c0.43437,-0.44144 0.55342,-1.10415 0.29986,-1.66917c-0.25357,-0.56502 -0.82781,-0.9166 -1.44634,-0.88552z"></path></g></g></svg>